<svg width="36" height="45" viewBox="0 0 36 45" fill="none" xmlns="http://www.w3.org/2000/svg">
<path id="sound_detection_dog_barking" d="M1.91649 45V21.9937H5.67428V41.25H22.9604V29.2687L28.7662 23.475C29.881 22.3625 30.739 21.1 31.3403 19.6875C31.9415 18.275 32.2422 16.7875 32.2422 15.225C32.2422 13.675 31.9321 12.1937 31.3121 10.7812C30.6921 9.36874 29.8434 8.11875 28.7662 7.03125L27.094 5.30623L19.785 12.6H10.0146L7.21503 15.3937L4.52816 12.7688L8.45511 8.84998H18.2255L27.094 0L31.453 4.34998C32.906 5.79999 34.0209 7.45937 34.7975 9.32811C35.5741 11.1968 35.9749 13.1625 36 15.225C35.9749 17.2875 35.5741 19.2531 34.7975 21.1219C34.0209 22.9906 32.906 24.65 31.453 26.1L26.7181 30.825V45H1.91649ZM12.6451 33.4312L1.18372 21.9937C0.795419 21.6062 0.501049 21.1625 0.300607 20.6625C0.100202 20.1625 0 19.6375 0 19.0875C0 18.5375 0.100202 18.0094 0.300607 17.5031C0.501049 16.9969 0.795419 16.55 1.18372 16.1625L5.65551 11.6438L12.382 18.3C13.4092 19.325 14.2014 20.4969 14.7588 21.8156C15.3162 23.1344 15.5949 24.5187 15.5949 25.9687C15.5949 27.3437 15.3444 28.6781 14.8434 29.9719C14.3424 31.2656 13.6096 32.4187 12.6451 33.4312Z" fill="#4FD1C5"/>
</svg>
