<svg width="25" height="25" viewBox="0 0 25 25" fill="none" xmlns="http://www.w3.org/2000/svg">
<g id="ar_stickers">
<mask id="mask0_1_555" style="mask-type:alpha" maskUnits="userSpaceOnUse" x="0" y="0" width="25" height="25">
<rect id="Bounding box" x="0.262695" y="0.5" width="24" height="24" fill="#D9D9D9"/>
</mask>
<g mask="url(#mask0_1_555)">
<path id="ar_stickers_2" d="M12.2627 23.5C9.77936 23.5 7.65853 23.1458 5.9002 22.4375C4.14186 21.7292 3.2627 20.75 3.2627 19.5C3.2627 18.9667 3.42936 18.4875 3.7627 18.0625C4.09603 17.6375 4.5627 17.2583 5.1627 16.925L6.7877 18.375C6.3877 18.5083 6.03353 18.6792 5.7252 18.8875C5.41686 19.0958 5.2627 19.3 5.2627 19.5C5.2627 19.9333 5.9377 20.375 7.2877 20.825C8.6377 21.275 10.296 21.5 12.2627 21.5C14.2294 21.5 15.8877 21.275 17.2377 20.825C18.5877 20.375 19.2627 19.9333 19.2627 19.5C19.2627 19.3 19.1085 19.0958 18.8002 18.8875C18.4919 18.6792 18.1377 18.5083 17.7377 18.375L19.3627 16.925C19.9627 17.2583 20.4294 17.6375 20.7627 18.0625C21.096 18.4875 21.2627 18.9667 21.2627 19.5C21.2627 20.75 20.3835 21.7292 18.6252 22.4375C16.8669 23.1458 14.746 23.5 12.2627 23.5ZM12.2627 19.5C11.896 19.5 11.5419 19.4375 11.2002 19.3125C10.8585 19.1875 10.546 19 10.2627 18.75L3.9627 13.175C3.74603 12.9917 3.5752 12.7667 3.4502 12.5C3.3252 12.2333 3.2627 11.9583 3.2627 11.675V9.675C3.2627 9.39167 3.31686 9.11667 3.4252 8.85C3.53353 8.58333 3.69603 8.35833 3.9127 8.175L10.2127 2.3C10.496 2.03333 10.8127 1.83333 11.1627 1.7C11.5127 1.56667 11.8794 1.5 12.2627 1.5C12.646 1.5 13.0127 1.56667 13.3627 1.7C13.7127 1.83333 14.0294 2.03333 14.3127 2.3L20.6127 8.175C20.8294 8.35833 20.9919 8.58333 21.1002 8.85C21.2085 9.11667 21.2627 9.39167 21.2627 9.675V11.675C21.2627 11.9583 21.2002 12.2333 21.0752 12.5C20.9502 12.7667 20.7794 12.9917 20.5627 13.175L14.2627 18.75C13.9794 19 13.6669 19.1875 13.3252 19.3125C12.9835 19.4375 12.6294 19.5 12.2627 19.5ZM12.1627 14.8C12.396 14.8 12.6169 14.7625 12.8252 14.6875C13.0335 14.6125 13.2294 14.4917 13.4127 14.325L18.9627 9.4L12.9627 3.75C12.846 3.66667 12.7294 3.60417 12.6127 3.5625C12.496 3.52083 12.371 3.5 12.2377 3.5C12.1044 3.5 11.9794 3.52083 11.8627 3.5625C11.746 3.60417 11.646 3.66667 11.5627 3.75L5.4627 9.5L10.9127 14.325C11.096 14.4917 11.2919 14.6125 11.5002 14.6875C11.7085 14.7625 11.9294 14.8 12.1627 14.8ZM9.2627 10.75C9.6127 10.75 9.90853 10.6292 10.1502 10.3875C10.3919 10.1458 10.5127 9.85 10.5127 9.5C10.5127 9.15 10.3919 8.85417 10.1502 8.6125C9.90853 8.37083 9.6127 8.25 9.2627 8.25C8.9127 8.25 8.61686 8.37083 8.3752 8.6125C8.13353 8.85417 8.0127 9.15 8.0127 9.5C8.0127 9.85 8.13353 10.1458 8.3752 10.3875C8.61686 10.6292 8.9127 10.75 9.2627 10.75ZM10.5127 12.1C11.2294 12.45 11.9835 12.5625 12.7752 12.4375C13.5669 12.3125 14.2627 11.9833 14.8627 11.45C15.4294 10.9667 15.8002 10.3583 15.9752 9.625C16.1502 8.89167 16.0627 8.2 15.7127 7.55L10.5127 12.1ZM12.2627 7.75C12.6127 7.75 12.9085 7.62917 13.1502 7.3875C13.3919 7.14583 13.5127 6.85 13.5127 6.5C13.5127 6.15 13.3919 5.85417 13.1502 5.6125C12.9085 5.37083 12.6127 5.25 12.2627 5.25C11.9127 5.25 11.6169 5.37083 11.3752 5.6125C11.1335 5.85417 11.0127 6.15 11.0127 6.5C11.0127 6.85 11.1335 7.14583 11.3752 7.3875C11.6169 7.62917 11.9127 7.75 12.2627 7.75Z" fill="#2D3748"/>
</g>
</g>
</svg>
