<svg width="54" height="54" viewBox="0 0 54 54" fill="none" xmlns="http://www.w3.org/2000/svg">
<g id="material-symbols-light:car-crash-outline">
<path id="Vector" d="M6.75 29.5965L11.2163 16.875C11.3258 16.518 11.5365 16.2405 11.8485 16.0425C12.162 15.8475 12.5107 15.75 12.8947 15.75H23.058C23.0325 16.125 23.034 16.5 23.0625 16.875C23.0925 17.25 23.1345 17.625 23.1885 18H13.248L9.93375 27.3465H29.4368C30.3337 27.9585 31.284 28.4535 32.2875 28.8315C33.2925 29.211 34.3687 29.466 35.5163 29.5965H9V40.5H40.5V30.0757C40.8555 30.0502 41.235 29.9753 41.6385 29.8507C42.042 29.7278 42.4125 29.5695 42.75 29.376V46.125C42.75 46.4445 42.642 46.7115 42.426 46.926C42.21 47.1405 41.943 47.2485 41.625 47.25H41.1075C40.788 47.25 40.5202 47.142 40.3042 46.926C40.0882 46.71 39.9802 46.443 39.9802 46.125V42.75H9.51975V46.125C9.51975 46.4445 9.41175 46.7115 9.19575 46.926C8.97975 47.1405 8.71275 47.2485 8.39475 47.25H7.875C7.5555 47.25 7.2885 47.142 7.074 46.926C6.8595 46.71 6.7515 46.443 6.75 46.125V29.5965ZM35.0573 37.557C35.7578 37.557 36.3503 37.3125 36.8348 36.8235C37.3162 36.333 37.557 35.7375 37.557 35.037C37.557 34.3365 37.3125 33.7455 36.8235 33.264C36.333 32.781 35.7375 32.5395 35.037 32.5395C34.3365 32.5395 33.7455 32.784 33.264 33.273C32.781 33.7635 32.5395 34.3583 32.5395 35.0573C32.5395 35.7563 32.784 36.3488 33.273 36.8348C33.7635 37.3162 34.3583 37.557 35.0573 37.557ZM14.463 37.557C15.162 37.557 15.753 37.3125 16.236 36.8235C16.719 36.333 16.9605 35.7375 16.9605 35.037C16.9605 34.3365 16.716 33.7455 16.227 33.264C15.7365 32.781 15.1418 32.5395 14.4428 32.5395C13.7438 32.5395 13.1513 32.784 12.6653 33.273C12.1838 33.7635 11.943 34.3583 11.943 35.0573C11.943 35.7563 12.1875 36.3488 12.6765 36.8348C13.167 37.3162 13.7625 37.557 14.463 37.557ZM37.368 24.75C34.872 24.75 32.751 23.877 31.005 22.131C29.259 20.385 28.3853 18.2528 28.3837 15.7343C28.3837 13.2473 29.256 11.1277 31.0005 9.37575C32.7435 7.62525 34.8772 6.75 37.4017 6.75C39.8977 6.75 42.0187 7.623 43.7648 9.369C45.5107 11.115 46.3838 13.242 46.3838 15.75C46.3838 18.2565 45.5048 20.3835 43.7467 22.131C41.9888 23.877 39.864 24.75 37.368 24.75ZM36.5198 17.1337H38.25V10.3837H36.5175L36.5198 17.1337ZM37.3837 21.2895C37.6838 21.2895 37.9253 21.1913 38.1082 20.9948C38.2882 20.7983 38.3932 20.5642 38.4232 20.2928C38.4232 20.0048 38.3258 19.7527 38.1308 19.5367C37.9358 19.3207 37.6868 19.212 37.3837 19.2105C37.0837 19.2105 36.8363 19.3087 36.6413 19.5052C36.4447 19.7017 36.3465 19.95 36.3465 20.25C36.3465 20.55 36.444 20.7975 36.639 20.9925C36.8355 21.1905 37.0837 21.2895 37.3837 21.2895Z" fill="#4FD1C5"/>
</g>
</svg>
