<svg width="48" height="48" viewBox="0 0 48 48" fill="none" xmlns="http://www.w3.org/2000/svg">
<g id="dangerous">
<mask id="mask0_1_3261" style="mask-type:alpha" maskUnits="userSpaceOnUse" x="0" y="0" width="48" height="48">
<rect id="Bounding box" width="48" height="48" fill="#D9D9D9"/>
</mask>
<g mask="url(#mask0_1_3261)">
<path id="dangerous_2" d="M16.5 42L6 31.5V16.5L16.5 6H31.5L42 16.5V31.5L31.5 42H16.5ZM17.85 32.25L24 26.1L30.15 32.25L32.25 30.15L26.1 24L32.25 17.85L30.15 15.75L24 21.9L17.85 15.75L15.75 17.85L21.9 24L15.75 30.15L17.85 32.25ZM17.75 39H30.25L39 30.25V17.75L30.25 9H17.75L9 17.75V30.25L17.75 39Z" fill="#4FD1C5"/>
</g>
</g>
</svg>
