<svg width="25" height="25" viewBox="0 0 25 25" fill="none" xmlns="http://www.w3.org/2000/svg">
<g id="event_upcoming">
<mask id="mask0_1_539" style="mask-type:alpha" maskUnits="userSpaceOnUse" x="0" y="0" width="25" height="25">
<rect id="Bounding box" x="0.0253906" y="0.5" width="24" height="24" fill="#D9D9D9"/>
</mask>
<g mask="url(#mask0_1_539)">
<path id="event_upcoming_2" d="M15.0254 22.5V20.5H19.0254V10.5H5.02539V14.5H3.02539V6.5C3.02539 5.95 3.22122 5.47917 3.61289 5.0875C4.00456 4.69583 4.47539 4.5 5.02539 4.5H6.02539V2.5H8.02539V4.5H16.0254V2.5H18.0254V4.5H19.0254C19.5754 4.5 20.0462 4.69583 20.4379 5.0875C20.8296 5.47917 21.0254 5.95 21.0254 6.5V20.5C21.0254 21.05 20.8296 21.5208 20.4379 21.9125C20.0462 22.3042 19.5754 22.5 19.0254 22.5H15.0254ZM8.02539 24.5L6.62539 23.1L9.20039 20.5H1.02539V18.5H9.20039L6.62539 15.9L8.02539 14.5L13.0254 19.5L8.02539 24.5ZM5.02539 8.5H19.0254V6.5H5.02539V8.5Z" fill="#2D3748"/>
</g>
</g>
</svg>
