<svg width="37" height="44" viewBox="0 0 37 44" fill="none" xmlns="http://www.w3.org/2000/svg">
<path id="local_fire_department" d="M3.85413 25.4737C3.85413 27.7638 4.35517 29.922 5.35725 31.9483C6.35938 33.9746 7.76616 35.6889 9.57762 37.0912C9.462 36.7181 9.37848 36.345 9.32706 35.972C9.27569 35.5989 9.25 35.2257 9.25 34.8526C9.25 33.6175 9.48125 32.4596 9.94375 31.3789C10.4062 30.2982 11.0807 29.314 11.9672 28.4263L18.5 22L25.0328 28.4263C25.9193 29.314 26.5937 30.2982 27.0562 31.3789C27.5187 32.4596 27.75 33.6175 27.75 34.8526C27.75 35.2257 27.7243 35.5989 27.6729 35.972C27.6215 36.345 27.538 36.7181 27.4224 37.0912C29.2338 35.6889 30.6406 33.9746 31.6427 31.9483C32.6448 29.922 33.1459 27.7638 33.1459 25.4737C33.1459 23.4409 32.7315 21.4757 31.9029 19.578C31.0743 17.6804 29.8827 15.9532 28.3281 14.3965C27.5316 14.9497 26.6965 15.3775 25.8229 15.6798C24.9493 15.9821 24.0693 16.1333 23.1828 16.1333C20.8189 16.1333 18.8308 15.3356 17.2185 13.7403C15.6062 12.145 14.755 10.1509 14.6651 7.75789V6.98593C12.9821 8.25961 11.4726 9.63944 10.1364 11.1254C8.80035 12.6114 7.66659 14.1488 6.73516 15.7377C5.80372 17.3266 5.0907 18.9509 4.59609 20.6105C4.10145 22.2702 3.85413 23.8912 3.85413 25.4737ZM18.5 27.4035L14.6651 31.1859C14.164 31.6877 13.7786 32.2473 13.5088 32.8649C13.239 33.4825 13.1041 34.145 13.1041 34.8526C13.1041 36.3193 13.6277 37.5673 14.6747 38.5965C15.7218 39.6258 16.9969 40.1404 18.5 40.1404C20.0031 40.1404 21.2782 39.6258 22.3253 38.5965C23.3723 37.5673 23.8959 36.3193 23.8959 34.8526C23.8959 34.1322 23.761 33.4664 23.4912 32.8553C23.2214 32.2441 22.836 31.6877 22.3349 31.1859L18.5 27.4035ZM18.5 0V7.64211C18.5 8.95439 18.9529 10.0544 19.8586 10.9421C20.7643 11.8298 21.8724 12.2737 23.1828 12.2737C23.8766 12.2737 24.5221 12.1289 25.1195 11.8395C25.7169 11.55 26.2469 11.1158 26.7094 10.5368L27.75 9.26316C30.6021 10.8842 32.8568 13.1421 34.5141 16.0368C36.1714 18.9316 37 22.0772 37 25.4737C37 30.6456 35.2078 35.0263 31.6234 38.6158C28.0391 42.2053 23.6646 44 18.5 44C13.3354 44 8.96094 42.2053 5.37656 38.6158C1.79219 35.0263 0 30.6456 0 25.4737C0 20.5205 1.66051 15.7731 4.98153 11.2316C8.30251 6.69005 12.8087 2.94619 18.5 0Z" fill="#4FD1C5"/>
</svg>
