<svg width="25" height="25" viewBox="0 0 25 25" fill="none" xmlns="http://www.w3.org/2000/svg">
<g id="format_list_bulleted">
<mask id="mask0_1_547" style="mask-type:alpha" maskUnits="userSpaceOnUse" x="0" y="0" width="25" height="25">
<rect id="Bounding box" x="0.5" y="0.5" width="24" height="24" fill="#D9D9D9"/>
</mask>
<g mask="url(#mask0_1_547)">
<path id="format_list_bulleted_2" d="M9.5 19.5V17.5H21.5V19.5H9.5ZM9.5 13.5V11.5H21.5V13.5H9.5ZM9.5 7.5V5.5H21.5V7.5H9.5ZM5.5 20.5C4.95 20.5 4.47917 20.3042 4.0875 19.9125C3.69583 19.5208 3.5 19.05 3.5 18.5C3.5 17.95 3.69583 17.4792 4.0875 17.0875C4.47917 16.6958 4.95 16.5 5.5 16.5C6.05 16.5 6.52083 16.6958 6.9125 17.0875C7.30417 17.4792 7.5 17.95 7.5 18.5C7.5 19.05 7.30417 19.5208 6.9125 19.9125C6.52083 20.3042 6.05 20.5 5.5 20.5ZM5.5 14.5C4.95 14.5 4.47917 14.3042 4.0875 13.9125C3.69583 13.5208 3.5 13.05 3.5 12.5C3.5 11.95 3.69583 11.4792 4.0875 11.0875C4.47917 10.6958 4.95 10.5 5.5 10.5C6.05 10.5 6.52083 10.6958 6.9125 11.0875C7.30417 11.4792 7.5 11.95 7.5 12.5C7.5 13.05 7.30417 13.5208 6.9125 13.9125C6.52083 14.3042 6.05 14.5 5.5 14.5ZM5.5 8.5C4.95 8.5 4.47917 8.30417 4.0875 7.9125C3.69583 7.52083 3.5 7.05 3.5 6.5C3.5 5.95 3.69583 5.47917 4.0875 5.0875C4.47917 4.69583 4.95 4.5 5.5 4.5C6.05 4.5 6.52083 4.69583 6.9125 5.0875C7.30417 5.47917 7.5 5.95 7.5 6.5C7.5 7.05 7.30417 7.52083 6.9125 7.9125C6.52083 8.30417 6.05 8.5 5.5 8.5Z" fill="#2D3748"/>
</g>
</g>
</svg>
