<svg width="38" height="38" viewBox="0 0 38 38" fill="none" xmlns="http://www.w3.org/2000/svg">
<g id="Group">
<path id="Vector" d="M19 36C28.3888 36 36 28.3888 36 19C36 9.61116 28.3888 2 19 2C9.61116 2 2 9.61116 2 19C2 28.3888 9.61116 36 19 36Z" stroke="#4FD1C5" stroke-width="3" stroke-linecap="round" stroke-linejoin="round"/>
<path id="Vector_2" d="M7.09961 7.09961L30.8996 30.8996M20.6996 20.6996C22.0522 20.6996 23.3494 20.1623 24.3059 19.2059C25.2623 18.2494 25.7996 16.9522 25.7996 15.5996C25.7996 14.247 25.2623 12.9498 24.3059 11.9934C23.3494 11.0369 22.0522 10.4996 20.6996 10.4996H13.8996V13.8996M13.8996 27.4996V23.5216" stroke="#4FD1C5" stroke-width="3" stroke-linecap="round" stroke-linejoin="round"/>
</g>
</svg>
