<svg width="25" height="25" viewBox="0 0 25 25" fill="none" xmlns="http://www.w3.org/2000/svg">
<g id="id_card">
<mask id="mask0_1_571" style="mask-type:alpha" maskUnits="userSpaceOnUse" x="0" y="0" width="25" height="25">
<rect id="Bounding box" x="0.783203" y="0.5" width="24" height="24" fill="#D9D9D9"/>
</mask>
<g mask="url(#mask0_1_571)">
<path id="id_card_2" d="M14.7832 13.5H19.7832V11.5H14.7832V13.5ZM14.7832 10.5H19.7832V8.5H14.7832V10.5ZM5.7832 16.5H13.7832V15.95C13.7832 15.2 13.4165 14.6042 12.6832 14.1625C11.9499 13.7208 10.9832 13.5 9.7832 13.5C8.5832 13.5 7.61654 13.7208 6.8832 14.1625C6.14987 14.6042 5.7832 15.2 5.7832 15.95V16.5ZM9.7832 12.5C10.3332 12.5 10.804 12.3042 11.1957 11.9125C11.5874 11.5208 11.7832 11.05 11.7832 10.5C11.7832 9.95 11.5874 9.47917 11.1957 9.0875C10.804 8.69583 10.3332 8.5 9.7832 8.5C9.2332 8.5 8.76237 8.69583 8.3707 9.0875C7.97904 9.47917 7.7832 9.95 7.7832 10.5C7.7832 11.05 7.97904 11.5208 8.3707 11.9125C8.76237 12.3042 9.2332 12.5 9.7832 12.5ZM4.7832 20.5C4.2332 20.5 3.76237 20.3042 3.3707 19.9125C2.97904 19.5208 2.7832 19.05 2.7832 18.5V6.5C2.7832 5.95 2.97904 5.47917 3.3707 5.0875C3.76237 4.69583 4.2332 4.5 4.7832 4.5H20.7832C21.3332 4.5 21.804 4.69583 22.1957 5.0875C22.5874 5.47917 22.7832 5.95 22.7832 6.5V18.5C22.7832 19.05 22.5874 19.5208 22.1957 19.9125C21.804 20.3042 21.3332 20.5 20.7832 20.5H4.7832ZM4.7832 18.5H20.7832V6.5H4.7832V18.5Z" fill="#2D3748"/>
</g>
</g>
</svg>
