<svg width="40" height="45" viewBox="0 0 40 45" fill="none" xmlns="http://www.w3.org/2000/svg">
<path id="precision_manufacturing" d="M2.47332 45V38.7475H9.45025L3.65458 17.2697C2.53484 16.6607 1.6458 15.8148 0.987456 14.7321C0.329152 13.6494 0 12.3164 0 10.7329C0 8.78409 0.639866 7.10594 1.9196 5.69848C3.19929 4.29097 4.7251 3.58722 6.49701 3.58722C8.05977 3.58722 9.38564 4.05752 10.4746 4.99811C11.5636 5.93867 12.305 7.1736 12.6987 8.70291H20.4509V5.49543C20.4509 4.94058 20.6324 4.46352 20.9954 4.06426C21.3584 3.66503 21.7921 3.46542 22.2966 3.46542C22.6781 3.46542 23.0134 3.60752 23.3025 3.89172C23.5917 4.17593 23.7732 4.52103 23.8471 4.92704L27.8708 0.704582C28.1784 0.366216 28.563 0.146282 29.0244 0.0447803C29.4858 -0.0567217 29.9503 0.0143297 30.4179 0.257934L39.1299 4.80524C39.499 5.02176 39.7543 5.32966 39.8958 5.72893C40.0373 6.12815 40.0158 6.53753 39.8312 6.95706C39.6343 7.39015 39.3483 7.65744 38.9729 7.75895C38.5977 7.86045 38.2316 7.8097 37.8747 7.60669L29.4951 3.22181L24.1424 9.0277V12.2758L29.4951 18.2035L37.8747 13.778C38.2562 13.575 38.6315 13.5344 39.0006 13.6562C39.3698 13.778 39.6466 14.0487 39.8312 14.4682C40.0281 14.9013 40.0527 15.3276 39.9051 15.7472C39.7574 16.1667 39.4867 16.4847 39.0929 16.7012L30.5656 21.1267C30.0734 21.3974 29.5904 21.509 29.1167 21.4617C28.6429 21.4143 28.2276 21.1944 27.8708 20.802L23.8471 16.5794C23.7732 17.0396 23.5917 17.3983 23.3025 17.6554C23.0134 17.9125 22.6781 18.0411 22.2966 18.0411C21.7921 18.0411 21.3584 17.8415 20.9954 17.4422C20.6324 17.043 20.4509 16.5659 20.4509 16.0111V12.763H12.6249C12.588 13.196 12.468 13.6291 12.265 14.0622C12.062 14.4953 11.8128 14.8742 11.5175 15.1991L22.7765 38.7475H31.267V45H2.47332ZM6.49701 13.8186C7.29685 13.8186 7.9644 13.5243 8.49967 12.9355C9.03493 12.3468 9.30257 11.6126 9.30257 10.7329C9.30257 9.85324 9.03493 9.11903 8.49967 8.53032C7.9644 7.94161 7.29685 7.64725 6.49701 7.64725C5.69718 7.64725 5.02963 7.94161 4.49436 8.53032C3.95909 9.11903 3.69146 9.85324 3.69146 10.7329C3.69146 11.6126 3.95909 12.3468 4.49436 12.9355C5.02963 13.5243 5.69718 13.8186 6.49701 13.8186ZM13.4001 38.7475H18.6051L8.45354 17.3509C8.37971 17.405 8.24435 17.4591 8.04744 17.5132L7.60446 17.635L13.4001 38.7475Z" fill="#4FD1C5"/>
</svg>
