<svg width="24" height="24" viewBox="0 0 24 24" fill="none" xmlns="http://www.w3.org/2000/svg">
<g id="material-symbols-light:model-training">
<path id="Vector" d="M5.188 18.0994C4.646 17.3761 4.22933 16.5861 3.938 15.7294C3.646 14.8721 3.5 13.9621 3.5 12.9994C3.5 10.6274 4.32367 8.61774 5.971 6.97041C7.61833 5.32307 9.628 4.49941 12 4.49941H13.412L11.292 2.37941L11.981 1.69141L15.288 4.99941L11.981 8.30741L11.267 7.59341L13.362 5.49941H12C9.92533 5.49941 8.15667 6.23074 6.694 7.69341C5.23133 9.15607 4.5 10.9247 4.5 12.9994C4.5 13.8241 4.62467 14.6081 4.874 15.3514C5.12333 16.0947 5.47233 16.7731 5.921 17.3864L5.188 18.0994ZM11.269 18.1914C11.205 17.6927 11.0533 17.2527 10.814 16.8714C10.5753 16.4901 10.3233 16.1207 10.058 15.7634C9.79267 15.4067 9.55633 15.0397 9.349 14.6624C9.14233 14.2844 9.039 13.8584 9.039 13.3844C9.039 12.5711 9.329 11.8744 9.909 11.2944C10.4903 10.7131 11.1873 10.4224 12 10.4224C12.8127 10.4224 13.5093 10.7127 14.09 11.2934C14.6713 11.8741 14.962 12.5707 14.962 13.3834C14.962 13.8581 14.8583 14.2811 14.651 14.6524C14.4443 15.0237 14.208 15.3911 13.942 15.7544C13.6767 16.1177 13.4247 16.4901 13.186 16.8714C12.946 17.2527 12.7943 17.6927 12.731 18.1914H11.269ZM11.308 20.6914V19.5764H12.692V20.6914H11.308ZM18.812 18.0994L18.079 17.3864C18.5277 16.7731 18.8767 16.0947 19.126 15.3514C19.3753 14.6081 19.5 13.8241 19.5 12.9994C19.5 11.9247 19.2933 10.9201 18.88 9.98541C18.4667 9.05007 17.892 8.24007 17.156 7.55541L17.869 6.84141C18.695 7.62341 19.34 8.53807 19.804 9.58541C20.268 10.6321 20.5 11.7701 20.5 12.9994C20.5 13.9621 20.3543 14.8721 20.063 15.7294C19.771 16.5861 19.354 17.3761 18.812 18.0994Z" fill="#2D3748"/>
</g>
</svg>
