<svg width="54" height="54" viewBox="0 0 54 54" fill="none" xmlns="http://www.w3.org/2000/svg">
<g id="nest_cam_iq">
<mask id="mask0_1_2995" style="mask-type:alpha" maskUnits="userSpaceOnUse" x="0" y="0" width="54" height="54">
<rect id="Bounding box" width="54" height="54" fill="#D9D9D9"/>
</mask>
<g mask="url(#mask0_1_2995)">
<path id="nest_cam_iq_2" d="M19.5014 49.499C18.4702 49.499 17.5874 49.1318 16.853 48.3975C16.1186 47.6631 15.7515 46.7803 15.7515 45.7491H25.1265V35.9053C21.1515 35.3678 17.8452 33.6209 15.2077 30.6647C12.5702 27.7084 11.2515 24.2365 11.2515 20.249C11.2515 15.8615 12.7796 12.1396 15.8358 9.0834C18.8921 6.02715 22.614 4.49902 27.0015 4.49902C31.389 4.49902 35.1108 6.02715 38.1671 9.0834C41.2233 12.1396 42.7515 15.8615 42.7515 20.249C42.7515 24.2365 41.4327 27.7084 38.7952 30.6647C36.1577 33.6209 32.8514 35.3678 28.8764 35.9053V45.7491H38.2515C38.2515 46.7803 37.8843 47.6631 37.1499 48.3975C36.4156 49.1318 35.5328 49.499 34.5015 49.499H19.5014ZM27.0015 32.2491C30.339 32.2491 33.1733 31.0834 35.5046 28.7522C37.8359 26.4209 39.0015 23.5865 39.0015 20.249C39.0015 16.9115 37.8359 14.0771 35.5046 11.7459C33.1733 9.41462 30.339 8.24899 27.0015 8.24899C23.664 8.24899 20.8296 9.41462 18.4983 11.7459C16.1671 14.0771 15.0014 16.9115 15.0014 20.249C15.0014 23.5865 16.1671 26.4209 18.4983 28.7522C20.8296 31.0834 23.664 32.2491 27.0015 32.2491ZM27.0015 25.4991C25.539 25.4991 24.2983 24.9897 23.2796 23.9709C22.2608 22.9522 21.7514 21.7115 21.7514 20.249C21.7514 18.7865 22.2608 17.5459 23.2796 16.5271C24.2983 15.5084 25.539 14.999 27.0015 14.999C28.464 14.999 29.7046 15.5084 30.7234 16.5271C31.7421 17.5459 32.2515 18.7865 32.2515 20.249C32.2515 21.7115 31.7421 22.9522 30.7234 23.9709C29.7046 24.9897 28.464 25.4991 27.0015 25.4991Z" fill="#4FD1C5"/>
</g>
</g>
</svg>
