<svg width="41" height="44" viewBox="0 0 41 44" fill="none" xmlns="http://www.w3.org/2000/svg">
<path id="data_loss_prevention" d="M16.9067 17.7543C17.9955 17.7543 18.9265 17.3383 19.6997 16.5062C20.473 15.6741 20.8596 14.6738 20.8596 13.5053C20.8596 12.3369 20.4719 11.3377 19.6966 10.5079C18.9212 9.67807 17.9891 9.26316 16.9003 9.26316C15.8115 9.26316 14.8805 9.67921 14.1072 10.5113C13.334 11.3434 12.9474 12.3437 12.9474 13.5122C12.9474 14.6806 13.3351 15.6798 14.1104 16.5096C14.8858 17.3394 15.8179 17.7543 16.9067 17.7543ZM16.9215 27.0175C18.384 27.0175 19.7862 26.691 21.1278 26.0381C22.4695 25.3851 23.6329 24.4572 24.618 23.2544C23.4311 22.4439 22.1873 21.8392 20.8866 21.4403C19.5859 21.0415 18.2582 20.8421 16.9035 20.8421C15.5488 20.8421 14.2211 21.0415 12.9204 21.4403C11.6197 21.8392 10.3759 22.4439 9.18902 23.2544C10.208 24.4509 11.3859 25.3772 12.7226 26.0333C14.0593 26.6894 15.4589 27.0175 16.9215 27.0175ZM38.4825 44L27.5132 32.228C26.0626 33.4631 24.4232 34.4473 22.5949 35.1807C20.7667 35.914 18.8703 36.2807 16.9058 36.2807C12.2049 36.2807 8.21199 34.5181 4.92717 30.993C1.64239 27.4678 0 23.1836 0 18.1403C0 13.0971 1.64239 8.81287 4.92717 5.2877C8.21199 1.76257 12.2041 0 16.9035 0C21.6029 0 25.595 1.76257 28.8798 5.2877C32.1646 8.81287 33.807 13.0979 33.807 18.1428C33.807 20.2511 33.4653 22.2863 32.782 24.2482C32.0986 26.2102 31.1815 27.9696 30.0307 29.5263L41 41.2983L38.4825 44ZM16.9215 32.4211C20.6019 32.4211 23.7368 31.0252 26.3263 28.2334C28.9158 25.4415 30.2105 22.0707 30.2105 18.1211C30.2105 14.1713 28.9168 10.807 26.3293 8.02803C23.7418 5.24909 20.5999 3.85961 16.9035 3.85961C13.2351 3.85961 10.1001 5.24802 7.49868 8.02485C4.8972 10.8016 3.59646 14.1735 3.59646 18.1403C3.59646 22.0772 4.8972 25.4415 7.49868 28.2334C10.1001 31.0252 13.2411 32.4211 16.9215 32.4211Z" fill="#4FD1C5"/>
</svg>
