<svg width="25" height="32" viewBox="0 0 25 32" fill="none" xmlns="http://www.w3.org/2000/svg">
<path id="directions_subway" d="M3.08642 31.6667V30L5.40123 28.3333C3.88374 28.3333 2.60417 27.7708 1.5625 26.6458C0.520833 25.5208 0 24.1389 0 22.5V6.66667C0 4.36111 0.990227 2.67361 2.97068 1.60417C4.95113 0.534722 8.07613 0 12.3457 0C16.7695 0 19.9331 0.513889 21.8364 1.54167C23.7397 2.56944 24.6914 4.27778 24.6914 6.66667V22.5C24.6914 24.1389 24.1705 25.5208 23.1289 26.6458C22.0872 27.7708 20.8076 28.3333 19.2901 28.3333L21.6049 30V31.6667H3.08642ZM2.57199 13.75H11.1626V7.77775H2.57199V13.75ZM13.7346 13.75H22.1194V7.77775H13.7346V13.75ZM6.81736 23.4722C7.42505 23.4722 7.94109 23.2425 8.36547 22.7831C8.78985 22.3237 9.00205 21.7658 9.00205 21.1095C9.00205 20.4532 8.78935 19.8958 8.36397 19.4375C7.93858 18.9792 7.42203 18.75 6.81431 18.75C6.20662 18.75 5.69059 18.9797 5.2662 19.4391C4.84182 19.8986 4.62963 20.4564 4.62963 21.1128C4.62963 21.7691 4.84232 22.3264 5.26771 22.7847C5.69309 23.243 6.20964 23.4722 6.81736 23.4722ZM17.877 23.4722C18.4847 23.4722 19.0008 23.2425 19.4252 22.7831C19.8495 22.3237 20.0617 21.7658 20.0617 21.1095C20.0617 20.4532 19.849 19.8958 19.4237 19.4375C18.9983 18.9792 18.4817 18.75 17.874 18.75C17.2663 18.75 16.7503 18.9797 16.3259 19.4391C15.9015 19.8986 15.6893 20.4564 15.6893 21.1128C15.6893 21.7691 15.902 22.3264 16.3274 22.7847C16.7528 23.243 17.2693 23.4722 17.877 23.4722ZM5.40123 25.6945H19.2901C20.096 25.6945 20.769 25.3843 21.3092 24.7639C21.8493 24.1435 22.1194 23.3889 22.1194 22.5V16.5278H2.57199V22.5C2.57199 23.3889 2.84205 24.1435 3.38218 24.7639C3.92233 25.3843 4.59534 25.6945 5.40123 25.6945ZM12.3457 2.77775C9.55075 2.77775 7.45669 2.96757 6.0635 3.34721C4.67032 3.72685 3.67794 4.27778 3.08638 5H21.7336C21.2706 4.31481 20.2954 3.77314 18.8079 3.375C17.3204 2.97683 15.1663 2.77775 12.3457 2.77775Z" fill="url(#paint0_linear_1_3272)"/>
<defs>
<linearGradient id="paint0_linear_1_3272" x1="0" y1="15.8333" x2="24.6914" y2="15.8333" gradientUnits="userSpaceOnUse">
<stop stop-color="#4FD1C5"/>
<stop offset="1" stop-color="#2FA7FF"/>
</linearGradient>
</defs>
</svg>
