<svg width="25" height="25" viewBox="0 0 25 25" fill="none" xmlns="http://www.w3.org/2000/svg">
<g id="video_call">
<mask id="mask0_1_531" style="mask-type:alpha" maskUnits="userSpaceOnUse" x="0" y="0" width="25" height="25">
<rect id="Bounding box" x="0.0499878" y="0.5" width="24" height="24" fill="#D9D9D9"/>
</mask>
<g mask="url(#mask0_1_531)">
<path id="video_call_2" d="M9.04999 16.5H11.05V13.5H14.05V11.5H11.05V8.5H9.04999V11.5H6.04999V13.5H9.04999V16.5ZM4.04999 20.5C3.49999 20.5 3.02915 20.3042 2.63749 19.9125C2.24582 19.5208 2.04999 19.05 2.04999 18.5V6.5C2.04999 5.95 2.24582 5.47917 2.63749 5.0875C3.02915 4.69583 3.49999 4.5 4.04999 4.5H16.05C16.6 4.5 17.0708 4.69583 17.4625 5.0875C17.8542 5.47917 18.05 5.95 18.05 6.5V11L22.05 7V18L18.05 14V18.5C18.05 19.05 17.8542 19.5208 17.4625 19.9125C17.0708 20.3042 16.6 20.5 16.05 20.5H4.04999ZM4.04999 18.5H16.05V6.5H4.04999V18.5Z" fill="#2D3748"/>
</g>
</g>
</svg>
