<svg width="25" height="25" viewBox="0 0 25 25" fill="none" xmlns="http://www.w3.org/2000/svg">
<g id="warning">
<mask id="mask0_1_563" style="mask-type:alpha" maskUnits="userSpaceOnUse" x="0" y="0" width="25" height="25">
<rect id="Bounding box" x="0.56543" y="0.5" width="24" height="24" fill="#D9D9D9"/>
</mask>
<g mask="url(#mask0_1_563)">
<path id="warning_2" d="M1.56543 21.5L12.5654 2.5L23.5654 21.5H1.56543ZM5.01543 19.5H20.1154L12.5654 6.5L5.01543 19.5ZM12.5654 18.5C12.8488 18.5 13.0863 18.4042 13.2779 18.2125C13.4696 18.0208 13.5654 17.7833 13.5654 17.5C13.5654 17.2167 13.4696 16.9792 13.2779 16.7875C13.0863 16.5958 12.8488 16.5 12.5654 16.5C12.2821 16.5 12.0446 16.5958 11.8529 16.7875C11.6613 16.9792 11.5654 17.2167 11.5654 17.5C11.5654 17.7833 11.6613 18.0208 11.8529 18.2125C12.0446 18.4042 12.2821 18.5 12.5654 18.5ZM11.5654 15.5H13.5654V10.5H11.5654V15.5Z" fill="#2D3748"/>
</g>
</g>
</svg>
